<svg xmlns="http://www.w3.org/2000/svg" viewBox="0 0 46.75 49.58"><defs><style>.cls-1{fill:#1d2049;}</style></defs><g id="Capa_2" data-name="Capa 2"><g id="Capa_1-2" data-name="Capa 1"><path class="cls-1" d="M44.78,40.32H25.23q10.2-10.18,20.38-20.38a4.13,4.13,0,0,0,.76-1,2.86,2.86,0,0,0-.73-3.67l-5.19-5.19q-4.28-4.27-8.56-8.57A5.76,5.76,0,0,0,29.8,0L28.54,0l-.12.07c-.14.09-.3.17-.45.25A4.37,4.37,0,0,0,26.91,1Q15.27,12.64,3.66,24.27A7.94,7.94,0,0,0,2.44,25.8a7.63,7.63,0,0,0,1.18,9.52q2.06,2.09,4.13,4.15l2.71,2.7a5.08,5.08,0,0,0,3.79,1.55H44.7a5.15,5.15,0,0,0,.55,0,1.64,1.64,0,0,0,1.29-.91,1.66,1.66,0,0,0,0-1.59A1.83,1.83,0,0,0,44.78,40.32Zm-21.32-3-2.8,2.81a.68.68,0,0,1-.56.22c-1.94,0-3.89,0-5.84,0a1.86,1.86,0,0,1-1.42-.58L9.23,36.13,6,32.94a4.29,4.29,0,0,1,0-6.28l3.39-3.39c.16.18.33.36.5.53Z"/><path class="cls-1" d="M9.12,44a1.84,1.84,0,0,0-1.36.59c-.58.56-1.15,1.14-1.73,1.72l-.15.15a2,2,0,0,0-.67,1.74,1.94,1.94,0,0,0,1.27,1.33l.81,0,.13-.09.2-.12a3.24,3.24,0,0,0,.56-.4c.68-.65,1.33-1.32,2-2a1.7,1.7,0,0,0,.11-2.47A1.58,1.58,0,0,0,9.12,44Z"/><path class="cls-1" d="M6.49,41.42a1.69,1.69,0,0,0-1.66-1.68c-.37,0-.74,0-1.11,0H2.78c-.37,0-.74,0-1.11,0A1.68,1.68,0,0,0,0,41.39a1.7,1.7,0,0,0,1.63,1.72l1.61,0,1.64,0A1.72,1.72,0,0,0,6.49,41.42Z"/></g></g></svg>