<svg id="Capa_1" data-name="Capa 1" xmlns="http://www.w3.org/2000/svg" viewBox="0 0 283.68 71.28"><defs><style>.cls-1{fill:#333;}.cls-2{fill:#6167f0;}</style></defs><path class="cls-1" d="M88.49,51A14.94,14.94,0,0,1,78,47a14.45,14.45,0,0,1-3.29-4.78A15.46,15.46,0,0,1,74.7,30,15.71,15.71,0,0,1,78,25.22a14.69,14.69,0,0,1,4.85-3.13A15.77,15.77,0,0,1,88.65,21a14.28,14.28,0,0,1,8.06,2.2,10.71,10.71,0,0,1,2.64,2.21,12,12,0,0,1,2.89,5.05l-5.73,2a6.28,6.28,0,0,0-1-2.08,8,8,0,0,0-2.09-2A9,9,0,0,0,84,28.1a8,8,0,0,0-3.17,3.29,9.85,9.85,0,0,0,0,9.2,8.77,8.77,0,0,0,7.74,4.63,8.09,8.09,0,0,0,4.85-1.44A9.14,9.14,0,0,0,95,42.38a7.57,7.57,0,0,0,1.65-3l5.77,2a11,11,0,0,1-2.77,4.93,15.08,15.08,0,0,1-2.72,2.37,13.81,13.81,0,0,1-3.73,1.72A16.36,16.36,0,0,1,88.49,51Z"/><path class="cls-1" d="M119.76,48.31h-.08Q117.76,51,113.63,51a8.62,8.62,0,0,1-6.94-3.21,10.71,10.71,0,0,1-2.56-7.18,10.9,10.9,0,0,1,2.6-7,8.72,8.72,0,0,1,7-3.29,7.32,7.32,0,0,1,6,2.68h.08V30.71h5.77V50.63h-5.77Zm-1.28-4a5.46,5.46,0,0,0,0-7.3,5.1,5.1,0,0,0-7,0,5.35,5.35,0,0,0,0,7.3A4.59,4.59,0,0,0,115,45.74,4.81,4.81,0,0,0,118.48,44.3Z"/><path class="cls-1" d="M130.18,50.63V20.2H136V50.63Z"/><path class="cls-1" d="M159.85,42.3H145.42a4.32,4.32,0,0,0,1.64,2.84,5.07,5.07,0,0,0,3.25,1.08,4.93,4.93,0,0,0,2.53-.76,3.64,3.64,0,0,0,1.68-1.92l4.81,1.64a8.09,8.09,0,0,1-3.45,4.33,10.1,10.1,0,0,1-5.49,1.57,11.66,11.66,0,0,1-5.49-1.33,9.9,9.9,0,0,1-4-3.69,10.33,10.33,0,0,1-1.48-5.41,10,10,0,0,1,1.44-5.25,10.54,10.54,0,0,1,3.89-3.81A10.3,10.3,0,0,1,150,30.23a9.47,9.47,0,0,1,9.94,10A13.76,13.76,0,0,1,159.85,42.3Zm-14.31-3.89h8.58a4,4,0,0,0-1-2.25,4.7,4.7,0,0,0-6.18-.08A4.15,4.15,0,0,0,145.54,38.41Z"/><path class="cls-1" d="M182.06,50.63h-5.81V39.57a4.19,4.19,0,0,0-.88-2.83,3.81,3.81,0,0,0-5.25.06,4.31,4.31,0,0,0-.93,2.77V50.63h-5.81V30.71h5.77v2.6h0a5.4,5.4,0,0,1,3.13-2.52,9.43,9.43,0,0,1,2.53-.48,6.49,6.49,0,0,1,5.39,2.28,8.77,8.77,0,0,1,1.82,5.66Z"/><path class="cls-1" d="M206.72,50.63h-5.65V48.11H201A7,7,0,0,1,194.81,51a8.62,8.62,0,0,1-6.93-3.21A11,11,0,0,1,188,33.48a8.62,8.62,0,0,1,6.85-3.17,9.71,9.71,0,0,1,2.61.4A6.82,6.82,0,0,1,200.83,33h.08V20.24h5.81Zm-7.06-6.33a5.43,5.43,0,0,0,0-7.3,4.79,4.79,0,0,0-3.53-1.4,4.73,4.73,0,0,0-3.48,1.4,5.32,5.32,0,0,0,0,7.3,4.59,4.59,0,0,0,3.48,1.44A4.81,4.81,0,0,0,199.66,44.3Z"/><path class="cls-1" d="M211.17,30.71H217v11.1a4.15,4.15,0,0,0,.88,2.81,3.29,3.29,0,0,0,2.61,1,3.22,3.22,0,0,0,2.65-1.08,4.19,4.19,0,0,0,.92-2.73V30.71h5.81V50.63h-5.73V48.15H224A6.33,6.33,0,0,1,218.51,51,6.62,6.62,0,0,1,213,48.63a8.38,8.38,0,0,1-1.8-5.41Z"/><path class="cls-1" d="M234.5,50.63V20.2h5.86V50.63Z"/><path class="cls-1" d="M259.44,48.31h-.08Q257.44,51,253.31,51a8.62,8.62,0,0,1-6.94-3.21,10.72,10.72,0,0,1-2.57-7.18,10.91,10.91,0,0,1,2.61-7,8.71,8.71,0,0,1,7-3.29,7.32,7.32,0,0,1,6,2.68h.08V30.71h5.77V50.63h-5.77Zm-1.28-4a5.46,5.46,0,0,0,0-7.3,4.83,4.83,0,0,0-3.53-1.4,4.77,4.77,0,0,0-3.49,1.4,5.35,5.35,0,0,0,0,7.3,4.59,4.59,0,0,0,3.49,1.44A4.82,4.82,0,0,0,258.16,44.3Z"/><path class="cls-2" d="M27.51,31.34H18.79a1.21,1.21,0,0,0-1.21,1.21v6.19a1.21,1.21,0,0,0,1.21,1.2h8.72l3.9-3.9v-.8Z"/><path class="cls-2" d="M65.48,31.34H56.76l-3.9,3.9V36l3.9,3.9h8.72a1.2,1.2,0,0,0,1.2-1.2V32.55A1.21,1.21,0,0,0,65.48,31.34Z"/><path class="cls-2" d="M46.44,21V12.3a1.21,1.21,0,0,0-1.21-1.21H39a1.21,1.21,0,0,0-1.21,1.21V21l3.9,3.9h.82Z"/><path class="cls-2" d="M37.83,50.27V59A1.21,1.21,0,0,0,39,60.19h6.19A1.21,1.21,0,0,0,46.44,59V50.27l-3.9-3.9h-.8Z"/><path class="cls-2" d="M52.86,27.15V31l8.82-8.82a1.21,1.21,0,0,0,0-1.71l-4.37-4.38a1.24,1.24,0,0,0-.86-.35,1.2,1.2,0,0,0-.85.35l-8.82,8.82h3.85A2.23,2.23,0,0,1,52.86,27.15Z"/><path class="cls-2" d="M31.41,44.13V40.28L22.59,49.1a1.21,1.21,0,0,0,0,1.71L27,55.19a1.21,1.21,0,0,0,1.71,0l8.82-8.82H33.64A2.23,2.23,0,0,1,31.41,44.13Z"/><path class="cls-2" d="M50.63,46.37H46.78l8.82,8.82a1.21,1.21,0,0,0,1.71,0l4.37-4.38a1.21,1.21,0,0,0,0-1.71l-8.82-8.82v3.85A2.23,2.23,0,0,1,50.63,46.37Z"/><path class="cls-2" d="M33.64,24.91h3.85l-8.82-8.82a1.2,1.2,0,0,0-.85-.35,1.24,1.24,0,0,0-.86.35l-4.37,4.38a1.21,1.21,0,0,0,0,1.71L31.41,31V27.15A2.23,2.23,0,0,1,33.64,24.91Z"/></svg>