<svg id="Capa_1" data-name="Capa 1" xmlns="http://www.w3.org/2000/svg" viewBox="0 0 283.68 71.28"><defs><style>.cls-1{fill:#232323;}.cls-2{fill:#6366f1;}</style></defs><path class="cls-1" d="M83.6,51.53a14.92,14.92,0,0,1-10.51-4.09,14.64,14.64,0,0,1-3.28-4.77,15.48,15.48,0,0,1,0-12.19,16.12,16.12,0,0,1,3.32-4.77A15,15,0,0,1,78,22.58a15.94,15.94,0,0,1,5.77-1.12,14.28,14.28,0,0,1,8.06,2.21,10.67,10.67,0,0,1,2.64,2.2,12.09,12.09,0,0,1,2.89,5.05l-5.73,2a6.17,6.17,0,0,0-1-2.09,7.93,7.93,0,0,0-2.08-2,8.94,8.94,0,0,0-9.38-.16A7.94,7.94,0,0,0,76,31.88a9.53,9.53,0,0,0-1.16,4.61,9.63,9.63,0,0,0,1.12,4.6,8.82,8.82,0,0,0,7.74,4.63,8,8,0,0,0,4.85-1.45,9.09,9.09,0,0,0,1.56-1.4,7.44,7.44,0,0,0,1.65-3l5.77,2a11,11,0,0,1-2.77,4.93A15.43,15.43,0,0,1,92,49.16a13.81,13.81,0,0,1-3.73,1.73A16.36,16.36,0,0,1,83.6,51.53Z"/><path class="cls-1" d="M114.87,48.8h-.08q-1.92,2.73-6.05,2.73a8.62,8.62,0,0,1-6.94-3.21,10.67,10.67,0,0,1-2.57-7.17,10.93,10.93,0,0,1,2.61-7.06,8.74,8.74,0,0,1,7-3.29,7.32,7.32,0,0,1,6,2.69h.08V31.2h5.77V51.13h-5.77Zm-1.28-4a5.45,5.45,0,0,0,0-7.29,5.07,5.07,0,0,0-7,0,5.33,5.33,0,0,0,0,7.29,4.57,4.57,0,0,0,3.49,1.45A4.78,4.78,0,0,0,113.59,44.79Z"/><path class="cls-1" d="M125.29,51.13V20.7h5.86V51.13Z"/><path class="cls-1" d="M155,42.79H140.53a4.32,4.32,0,0,0,1.64,2.85A5,5,0,0,0,148,46,3.66,3.66,0,0,0,149.63,44l4.81,1.65A8.16,8.16,0,0,1,151,50a10.11,10.11,0,0,1-5.49,1.56A11.65,11.65,0,0,1,140,50.25a9.9,9.9,0,0,1-4-3.69,10.37,10.37,0,0,1-1.49-5.41A10.09,10.09,0,0,1,136,35.89a10.69,10.69,0,0,1,3.89-3.81,10.37,10.37,0,0,1,5.25-1.36,9.48,9.48,0,0,1,9.94,10A13.67,13.67,0,0,1,155,42.79ZM140.65,38.9h8.58a4,4,0,0,0-1-2.24,4.52,4.52,0,0,0-7.54,2.24Z"/><path class="cls-1" d="M177.17,51.13h-5.81V40.06a4.16,4.16,0,0,0-.88-2.82,3.78,3.78,0,0,0-5.25.06,4.26,4.26,0,0,0-.93,2.76V51.13h-5.81V31.2h5.77v2.61h0a5.35,5.35,0,0,1,3.13-2.53A9.43,9.43,0,0,1,170,30.8a6.47,6.47,0,0,1,5.39,2.29,8.78,8.78,0,0,1,1.82,5.65Z"/><path class="cls-1" d="M201.83,51.13h-5.65V48.6h-.08a7,7,0,0,1-6.18,2.93A8.62,8.62,0,0,1,183,48.32,11,11,0,0,1,183.15,34,8.66,8.66,0,0,1,190,30.8a10.12,10.12,0,0,1,2.61.4,6.78,6.78,0,0,1,3.33,2.29H196V20.74h5.81Zm-7.06-6.34a5.42,5.42,0,0,0,0-7.29,4.76,4.76,0,0,0-3.53-1.41,4.7,4.7,0,0,0-3.48,1.41,5.31,5.31,0,0,0,0,7.29,4.54,4.54,0,0,0,3.48,1.45A4.78,4.78,0,0,0,194.77,44.79Z"/><path class="cls-1" d="M206.28,31.2h5.81V42.31a4.17,4.17,0,0,0,.88,2.81,3.32,3.32,0,0,0,2.61,1A3.22,3.22,0,0,0,218.23,45a4.19,4.19,0,0,0,.92-2.73V31.2H225V51.13h-5.73V48.64h-.08a6.31,6.31,0,0,1-5.53,2.89,6.6,6.6,0,0,1-5.54-2.41,8.37,8.37,0,0,1-1.8-5.41Z"/><path class="cls-1" d="M229.61,51.13V20.7h5.85V51.13Z"/><path class="cls-1" d="M254.55,48.8h-.08q-1.92,2.73-6.06,2.73a8.62,8.62,0,0,1-6.93-3.21,10.67,10.67,0,0,1-2.57-7.17,10.93,10.93,0,0,1,2.61-7.06,8.73,8.73,0,0,1,7-3.29,7.33,7.33,0,0,1,6,2.69h.08V31.2h5.77V51.13h-5.77Zm-1.28-4a5.45,5.45,0,0,0,0-7.29,4.79,4.79,0,0,0-3.53-1.41,4.72,4.72,0,0,0-3.49,1.41,5.33,5.33,0,0,0,0,7.29,4.57,4.57,0,0,0,3.49,1.45A4.79,4.79,0,0,0,253.27,44.79Z"/><rect class="cls-2" x="14.1" y="12.56" width="44.58" height="44.58" rx="22.29"/></svg>