<?xml version="1.0" encoding="utf-8"?>
<!-- Generator: Adobe Illustrator 25.4.1, SVG Export Plug-In . SVG Version: 6.00 Build 0)  -->
<svg version="1.1" id="Capa_1" xmlns="http://www.w3.org/2000/svg" xmlns:xlink="http://www.w3.org/1999/xlink" x="0px" y="0px"
	 viewBox="0 0 283.7 71.3" style="enable-background:new 0 0 283.7 71.3;" xml:space="preserve">
<style type="text/css">
	.st0{fill:#FFFFFF;stroke:#CCCCCC;stroke-miterlimit:10;}
	.st1{fill:#FFFFFF;}
	.st2{fill:#FFFFFF;stroke:#000000;stroke-miterlimit:10;}
	.st3{fill:#F2F2F2;}
	.st4{fill:#E2E2E2;stroke:#CCCCCC;stroke-miterlimit:10;}
	.st5{fill:#6366F1;}
	.st6{fill:#4378D6;}
	.st7{fill:#658DEF;}
	.st8{fill:#1C2D59;}
	.st9{fill:#1D1F23;}
	.st10{fill:#CEB774;}
	.st11{fill:#54B7D1;}
	.st12{fill:#568CDB;}
	.st13{fill:#1A59BD;}
	.st14{fill:#232323;}
	.st15{fill:#FF7BAC;}
	.st16{fill:#FF931E;}
	.st17{fill:#3FA9F5;}
	.st18{fill:#7AC943;}
	.st19{fill:#FCEE21;}
	.st20{fill:#93278F;}
	.st21{fill:none;stroke:#CCCCCC;stroke-miterlimit:10;}
	.st22{fill:none;stroke:#999999;stroke-miterlimit:10;}
	.st23{fill:#F8F9FF;stroke:#CCCCCC;stroke-miterlimit:10;}
	.st24{fill:#CCCCCC;}
	.st25{fill:none;stroke:#6366F1;stroke-width:2;stroke-miterlimit:10;}
	.st26{fill:none;stroke:#000000;stroke-width:2;stroke-miterlimit:10;}
	.st27{fill:#DD7E6B;}
	.st28{fill:#EA9999;}
	.st29{fill:#F9CB9C;}
	.st30{fill:#FFE599;}
	.st31{fill:#B6D7A8;}
	.st32{fill:#A2C4C9;}
	.st33{fill:#A4C2F4;}
	.st34{fill:#9FC5E8;}
	.st35{fill:#B4A7D6;}
	.st36{fill:#D5A6BD;}
	.st37{fill:#CC4125;}
	.st38{fill:#E06666;}
	.st39{fill:#F6B26B;}
	.st40{fill:#FFD966;}
	.st41{fill:#93C47D;}
	.st42{fill:#76A5AF;}
	.st43{fill:#6D9EEB;}
	.st44{fill:#6FA8DC;}
	.st45{fill:#8E7CC3;}
	.st46{fill:#C27BA0;}
	.st47{fill:#A61C00;}
	.st48{fill:#CC0000;}
	.st49{fill:#E69138;}
	.st50{fill:#F1C232;}
	.st51{fill:#6AA84F;}
	.st52{fill:#45818E;}
	.st53{fill:#3C78D8;}
	.st54{fill:#3D85C6;}
	.st55{fill:#674EA7;}
	.st56{fill:#A64D79;}
	.st57{fill:#85200C;}
	.st58{fill:#990000;}
	.st59{fill:#B45F06;}
	.st60{fill:#BF9000;}
	.st61{fill:#38761D;}
	.st62{fill:#134F5C;}
	.st63{fill:#1155CC;}
	.st64{fill:#0B5394;}
	.st65{fill:#351C75;}
	.st66{fill:#741B47;}
	.st67{fill:#5B0F00;}
	.st68{fill:#660000;}
	.st69{fill:#783F04;}
	.st70{fill:#7F6000;}
	.st71{fill:#274E13;}
	.st72{fill:#0C343D;}
	.st73{fill:#1C4587;}
	.st74{fill:#073763;}
	.st75{fill:#20124D;}
	.st76{fill:#4C1130;}
	.st77{fill:#EFF3F7;}
	.st78{fill:#6366F1;stroke:#6366F1;stroke-width:2;stroke-miterlimit:10;}
	.st79{fill:#ED1C24;stroke:#ED1C24;stroke-width:2;stroke-miterlimit:10;}
</style>
<g>
	<path class="st1" d="M83.6,51.5c-4.1,0-7.6-1.4-10.5-4.1c-1.3-1.3-2.4-2.8-3.3-4.8c-0.8-2-1.2-4-1.2-6.1c0-2.1,0.4-4.1,1.2-6.1
		c0.9-1.8,2-3.4,3.3-4.8c1.3-1.3,3-2.4,4.9-3.1c1.9-0.7,3.8-1.1,5.8-1.1c3.2,0,5.8,0.7,8.1,2.2c1,0.6,1.8,1.3,2.6,2.2
		c1.4,1.6,2.4,3.3,2.9,5.1l-5.7,2c-0.1-0.6-0.5-1.3-1-2.1c-0.5-0.8-1.2-1.5-2.1-2c-1.4-0.9-3-1.4-4.9-1.4c-1.7,0-3.2,0.4-4.5,1.2
		c-1.4,0.8-2.4,1.9-3.2,3.3c-0.8,1.4-1.2,3-1.2,4.6c0,1.7,0.4,3.2,1.1,4.6c0.7,1.4,1.8,2.5,3.2,3.3c1.4,0.9,2.9,1.3,4.6,1.3
		c1.9,0,3.5-0.5,4.9-1.4c0.5-0.4,1.1-0.8,1.6-1.4c0.8-1,1.4-2,1.6-3l5.8,2c-0.4,1.7-1.3,3.4-2.8,4.9c-0.8,0.9-1.7,1.7-2.7,2.4
		c-1,0.7-2.2,1.2-3.7,1.7C86.8,51.3,85.3,51.5,83.6,51.5z"/>
	<path class="st1" d="M114.9,48.8L114.9,48.8c-1.4,1.8-3.4,2.7-6.1,2.7c-2.8,0-5.1-1.1-6.9-3.2c-1.7-2-2.6-4.4-2.6-7.2
		c0-2.6,0.9-4.9,2.6-7.1c1.8-2.2,4.2-3.3,7-3.3c2.5,0,4.5,0.9,6,2.7h0.1v-2.3h5.8v19.9h-5.8V48.8z M113.6,44.8
		c0.9-1,1.4-2.2,1.4-3.6s-0.5-2.7-1.4-3.6c-0.9-0.9-2.1-1.4-3.5-1.4c-1.4,0-2.6,0.5-3.5,1.4c-1,1-1.4,2.2-1.4,3.6
		c0,1.5,0.5,2.7,1.4,3.6c0.9,1,2.1,1.4,3.5,1.4C111.4,46.2,112.6,45.8,113.6,44.8z"/>
	<path class="st1" d="M125.3,51.1V20.7h5.9v30.4H125.3z"/>
	<path class="st1" d="M155,42.8h-14.4c0.2,1.1,0.7,2.1,1.6,2.8c0.9,0.7,2,1.1,3.2,1.1c0.8,0,1.7-0.3,2.5-0.8
		c0.9-0.5,1.4-1.1,1.7-1.9l4.8,1.6c-0.6,1.8-1.8,3.3-3.4,4.3s-3.5,1.6-5.5,1.6c-2,0-3.8-0.4-5.5-1.3c-1.6-0.8-3-2.1-4-3.7
		c-1-1.7-1.5-3.5-1.5-5.4c0-1.9,0.5-3.6,1.4-5.3c0.9-1.6,2.2-2.8,3.9-3.8c1.6-0.9,3.3-1.4,5.3-1.4c2.9,0,5.3,0.9,7.2,2.8
		c1.8,1.8,2.8,4.2,2.8,7.2C155.1,41.6,155,42.3,155,42.8z M140.6,38.9h8.6c-0.1-0.8-0.4-1.5-1-2.2c-0.7-0.8-1.8-1.2-3.2-1.2
		c-1.2,0-2.2,0.4-3,1.1C141.2,37.4,140.8,38.1,140.6,38.9z"/>
	<path class="st1" d="M177.2,51.1h-5.8V40.1c0-1.2-0.3-2.1-0.9-2.8c-0.6-0.7-1.5-1-2.6-1c-1.1,0-2,0.4-2.6,1.1
		c-0.6,0.8-0.9,1.7-0.9,2.8v11.1h-5.8V31.2h5.8v2.6h0c0.7-1.3,1.8-2.1,3.1-2.5c1.1-0.3,1.9-0.5,2.5-0.5c2.4,0,4.2,0.8,5.4,2.3
		c1.2,1.5,1.8,3.4,1.8,5.7V51.1z"/>
	<path class="st1" d="M201.8,51.1h-5.7v-2.5h-0.1c-1.3,2-3.4,2.9-6.2,2.9c-2.8,0-5.1-1.1-6.9-3.2c-1.7-2-2.6-4.4-2.6-7.2
		c0-2.7,0.9-5.1,2.7-7.2c1.8-2.1,4.1-3.2,6.9-3.2c0.8,0,1.6,0.1,2.6,0.4c1.2,0.3,2.3,1.1,3.3,2.3h0.1V20.7h5.8V51.1z M194.8,44.8
		c0.9-1,1.4-2.2,1.4-3.6s-0.5-2.7-1.4-3.6c-0.9-0.9-2.1-1.4-3.5-1.4c-1.4,0-2.6,0.5-3.5,1.4c-1,1-1.4,2.2-1.4,3.6
		c0,1.5,0.5,2.7,1.4,3.6c0.9,1,2.1,1.4,3.5,1.4C192.6,46.2,193.8,45.8,194.8,44.8z"/>
	<path class="st1" d="M206.3,31.2h5.8v11.1c0,1.2,0.3,2.1,0.9,2.8c0.6,0.7,1.5,1,2.6,1c1.2,0,2.1-0.4,2.6-1.1
		c0.6-0.7,0.9-1.7,0.9-2.7V31.2h5.8v19.9h-5.7v-2.5h-0.1c-1.3,1.9-3.2,2.9-5.5,2.9c-2.4,0-4.3-0.8-5.5-2.4c-1.2-1.5-1.8-3.3-1.8-5.4
		V31.2z"/>
	<path class="st1" d="M229.6,51.1V20.7h5.9v30.4H229.6z"/>
	<path class="st1" d="M254.5,48.8L254.5,48.8c-1.4,1.8-3.4,2.7-6.1,2.7c-2.8,0-5.1-1.1-6.9-3.2c-1.7-2-2.6-4.4-2.6-7.2
		c0-2.6,0.9-4.9,2.6-7.1c1.8-2.2,4.2-3.3,7-3.3c2.5,0,4.5,0.9,6,2.7h0.1v-2.3h5.8v19.9h-5.8V48.8z M253.3,44.8
		c0.9-1,1.4-2.2,1.4-3.6s-0.5-2.7-1.4-3.6c-0.9-0.9-2.1-1.4-3.5-1.4c-1.4,0-2.6,0.5-3.5,1.4c-1,1-1.4,2.2-1.4,3.6
		c0,1.5,0.5,2.7,1.4,3.6c0.9,1,2.1,1.4,3.5,1.4C251.1,46.2,252.3,45.8,253.3,44.8z"/>
</g>
<path class="st1" d="M36.4,57.1L36.4,57.1c-12.3,0-22.3-10-22.3-22.3v0c0-12.3,10-22.3,22.3-22.3h0c12.3,0,22.3,10,22.3,22.3v0
	C58.7,47.2,48.7,57.1,36.4,57.1z"/>
</svg>
